# xmcd CD database generated by RipIT
#
# Track frame offsets:
# 150
# 25796
# 50637
# 78001
# 104604
# 124545
# 152898
# 177314
# 210682
# 238298
# 263591
# 288962
# 308162
#
# Disc length: 4538 seconds
#
# Revision: 0
# Processed by: cddbd v1.5.2PL0 Copyright (c) Steve Scherf et al.
# Submitted via: RipIT 3.9.0 www.suwald.com/ripit/ripit.html on 2010-11-17 at 19:56
#
DISCID=ae11b80d
DTITLE=Ulrich Pleitgen - Armistead Maupin - Mehr Stadtgeschichten (8v8)
DYEAR=2002
DGENRE=Other
TTITLE0=090 Mehr Stadtgeschichten
TTITLE1=091 Mehr Stadtgeschichten
TTITLE2=092 Mehr Stadtgeschichten
TTITLE3=093 Mehr Stadtgeschichten
TTITLE4=094 Mehr Stadtgeschichten
TTITLE5=095 Mehr Stadtgeschichten
TTITLE6=096 Mehr Stadtgeschichten
TTITLE7=097 Mehr Stadtgeschichten
TTITLE8=098 Mehr Stadtgeschichten
TTITLE9=099 Mehr Stadtgeschichten
TTITLE10=100 Mehr Stadtgeschichten
TTITLE11=101 Mehr Stadtgeschichten
TTITLE12=102 Mehr Stadtgeschichten
EXTD=
EXTT0=
EXTT1=
EXTT2=
EXTT3=
EXTT4=
EXTT5=
EXTT6=
EXTT7=
EXTT8=
EXTT9=
EXTT10=
EXTT11=
EXTT12=
PLAYORDER=
